<?xml version="1.0" standalone="no"?>
<svg version="1.0" xmlns="http://www.w3.org/2000/svg"
 width="3211.000000pt" height="425.000000pt" viewBox="0 0 3211.000000 425.000000"
 preserveAspectRatio="xMidYMid meet">
<g transform="translate(0.000000,425.000000) scale(0.100000,-0.100000)"
fill="#000000" stroke="none">
<path d="M4660 3750 c-453 -63 -774 -245 -976 -556 -227 -348 -311 -922 -214
-1469 90 -511 355 -861 778 -1029 205 -82 412 -116 700 -116 410 1 716 82 960
257 286 204 456 511 529 958 26 158 26 603 0 760 -69 415 -217 704 -462 901
-179 144 -377 230 -645 279 -109 20 -559 30 -670 15z m535 -694 c188 -64 315
-190 394 -388 77 -193 100 -514 55 -778 -48 -284 -184 -487 -390 -581 -151
-69 -391 -79 -554 -22 -145 50 -260 144 -339 277 -47 79 -98 234 -116 352 -17
116 -20 378 -4 491 43 314 168 516 385 620 103 49 184 63 349 59 121 -2 151
-7 220 -30z"/>
<path d="M1405 3693 c-84 -7 -260 -45 -348 -75 -550 -184 -837 -684 -837
-1458 0 -514 121 -892 371 -1155 136 -142 283 -233 485 -298 222 -71 215 -71
1050 -75 l750 -3 27 21 27 21 0 290 0 290 -25 24 -24 25 -663 0 c-729 0 -742
1 -859 60 -74 38 -160 122 -208 203 -48 82 -97 234 -115 358 -31 207 -17 524
30 679 48 162 160 306 287 368 123 61 135 62 863 62 654 0 662 0 688 21 l26
20 0 294 0 294 -26 20 c-26 21 -32 21 -743 19 -394 -1 -734 -3 -756 -5z"/>
<path d="M7039 3674 l-24 -26 -3 -1471 c-2 -1107 1 -1479 9 -1500 7 -16 23
-33 36 -38 13 -5 167 -9 342 -9 l318 0 24 26 24 26 3 1174 2 1174 313 0 c349
0 407 -7 508 -62 125 -66 209 -167 266 -319 66 -177 66 -164 72 -1117 l6 -864
24 -19 c22 -18 43 -19 347 -19 l323 0 28 24 28 24 0 824 c0 880 -3 937 -51
1171 -94 447 -321 757 -667 910 -102 45 -274 90 -402 106 -57 7 -346 11 -796
11 l-706 0 -24 -26z"/>
<path d="M10309 3674 l-24 -26 -3 -1471 c-2 -1107 1 -1479 9 -1500 7 -16 23
-33 36 -38 13 -5 167 -9 342 -9 l318 0 24 26 24 26 3 1174 2 1174 313 0 c349
0 407 -7 508 -62 125 -66 209 -167 266 -319 66 -177 66 -164 72 -1117 l6 -864
24 -19 c22 -18 43 -19 347 -19 l323 0 28 24 28 24 0 824 c0 880 -3 937 -51
1171 -94 447 -321 757 -667 910 -102 45 -274 90 -402 106 -57 7 -346 11 -796
11 l-706 0 -24 -26z"/>
<path d="M13571 3681 c-11 -11 -23 -35 -26 -53 -3 -18 -4 -692 -3 -1496 l3
-1464 24 -19 c23 -18 58 -19 1282 -19 l1258 0 28 24 28 24 0 287 0 287 -28 24
-28 24 -905 0 -904 0 0 265 0 265 824 0 c796 0 825 1 847 19 l24 19 3 278 c3
298 -1 328 -45 345 -14 5 -370 9 -839 9 l-814 0 0 265 0 265 884 0 885 0 28
24 28 24 0 287 0 287 -28 24 -28 24 -1240 0 c-1214 0 -1239 0 -1258 -19z"/>
<path d="M17845 3693 c-84 -7 -260 -45 -348 -75 -550 -184 -837 -684 -837
-1458 0 -514 121 -892 371 -1155 136 -142 283 -233 485 -298 222 -71 215 -71
1050 -75 l750 -3 27 21 27 21 0 290 0 290 -25 24 -24 25 -663 0 c-729 0 -742
1 -859 60 -74 38 -160 122 -208 203 -48 82 -97 234 -115 358 -31 207 -17 524
30 679 48 162 160 306 287 368 123 61 135 62 863 62 654 0 662 0 688 21 l26
20 0 294 0 294 -26 20 c-26 21 -32 21 -743 19 -394 -1 -734 -3 -756 -5z"/>
<path d="M19851 3681 c-30 -30 -32 -63 -29 -344 l3 -259 28 -24 28 -24 450 0
449 0 0 -1159 c0 -820 3 -1167 11 -1190 6 -17 19 -36 29 -41 24 -13 640 -13
673 -1 14 6 29 23 36 42 8 23 11 360 11 1190 l0 1159 449 0 450 0 25 23 26 22
0 270 c0 149 0 280 0 292 0 13 -9 32 -20 43 -20 20 -33 20 -1310 20 -1264 0
-1290 0 -1309 -19z"/>
<path d="M23011 3681 c-11 -11 -23 -35 -26 -53 -3 -18 -4 -692 -3 -1496 l3
-1464 24 -19 c22 -18 43 -19 348 -19 192 0 332 4 343 10 37 20 40 57 40 587
l0 515 348 -5 c380 -4 430 -11 567 -68 95 -40 143 -75 186 -137 79 -112 117
-303 125 -622 3 -113 10 -217 15 -231 18 -46 38 -49 374 -49 l314 0 28 24 c27
23 28 29 32 128 1 56 -2 180 -8 275 -26 391 -98 653 -224 818 -53 70 -96 106
-172 144 l-56 27 88 44 c69 35 106 63 173 130 97 96 135 159 176 295 25 83 27
103 27 265 1 205 -14 277 -87 425 -129 262 -382 427 -736 480 -77 12 -261 15
-987 15 -871 0 -893 0 -912 -19z m1802 -671 c51 -19 113 -74 139 -124 16 -30
23 -65 26 -132 6 -126 -14 -193 -76 -255 -79 -79 -78 -79 -659 -79 l-503 0 0
305 0 306 518 -4 c409 -2 525 -6 555 -17z"/>
<path d="M26349 3681 l-24 -19 0 -1497 0 -1497 24 -19 c22 -18 43 -19 352 -19
313 0 330 1 348 19 11 11 23 35 26 53 3 18 4 692 3 1496 l-3 1464 -24 19 c-22
18 -43 19 -351 19 -308 0 -329 -1 -351 -19z"/>
<path d="M27741 3681 c-30 -30 -35 -78 -27 -255 26 -605 186 -983 508 -1203
l69 -47 -53 -18 c-97 -33 -233 -107 -290 -158 -206 -184 -312 -553 -313 -1093
l0 -239 24 -19 c22 -18 43 -19 347 -19 l323 0 28 24 28 24 6 234 c9 310 35
469 101 608 102 214 415 342 698 286 106 -21 249 -89 317 -150 131 -118 190
-335 202 -749 l6 -229 28 -24 28 -24 323 0 c304 0 325 1 347 19 l24 19 -1 234
c-3 570 -122 958 -346 1124 -62 47 -218 126 -270 139 -16 4 -28 10 -28 14 0 3
21 19 48 36 71 45 204 177 260 258 164 238 239 522 258 978 7 167 -1 220 -36
239 -11 6 -148 10 -343 10 -305 0 -326 -1 -348 -19 -24 -19 -24 -21 -30 -283
-12 -479 -52 -669 -161 -762 -88 -76 -208 -115 -379 -123 -187 -9 -362 39
-463 127 -103 91 -143 285 -154 743 -7 277 -7 279 -31 298 -22 18 -43 19 -352
19 -313 0 -330 -1 -348 -19z"/>
<path d="M31064 1255 l-25 -25 3 -281 3 -281 24 -19 c22 -18 43 -19 347 -19
l323 0 28 24 28 24 3 248 c4 269 1 305 -29 335 -18 18 -35 19 -349 19 l-331 0
-25 -25z"/>
</g>
</svg>
